<svg xmlns="http://www.w3.org/2000/svg" viewBox="0 0 280 280"><path d="m140.06 0-38.53 87.92L6.8 96.7l70.58 63.33-19.65 93.19 82.54-47.64 82.1 47.64-20.53-92.64 71.34-63.88L179 88.36z" style="fill:#fff"/><path d="M6.81 96.7C2.42 110.42 0 124.91 0 140.06c0 46.54 22.72 87.81 57.73 113.27l31.28-96.7z" style="fill:#00af68"/><path d="M140.06 0C77.82 0 25.02 40.61 6.8 96.7h101.64z" style="fill:#ffc836"/><path d="M273.2 96.7C254.98 40.61 202.18 0 140.05 0l31.5 96.7h101.64Z" style="fill:#763ac7"/><path d="M280 140.05c0-15.15-2.41-29.64-6.81-43.25l-82.1 59.82 31.28 96.7c34.9-25.47 57.62-66.74 57.62-113.28Z" style="fill:#4586f6"/><path d="M57.73 253.22C80.78 270.01 109.32 280 140.05 280s59.16-9.88 82.32-26.78l-82.32-59.6z" style="fill:#ef3346"/></svg>